<?xml version="1.0" encoding="UTF-8" standalone="no"?>
<svg width="600px" height="412px" viewBox="0 0 600 412" version="1.1" xmlns="http://www.w3.org/2000/svg" xmlns:xlink="http://www.w3.org/1999/xlink">
    <!-- Generator: Sketch 3.8.2 (29753) - http://www.bohemiancoding.com/sketch -->
    <title>js-logo</title>
    <desc>Created with Sketch.</desc>
    <defs></defs>
    <g id="Page-1" stroke="none" stroke-width="1" fill="none" fill-rule="evenodd">
        <g id="logo" fill="#2E2E2C">
            <path d="M521.65505,100.73699 C521.666052,100.18909 521.992164,99.3451852 522.73776,98.12239 C526.02449,92.73226 519.71407,92.46934 523.78945,87.99947 C527.86495,83.52961 532.33478,78.40243 531.41461,73.0123 C530.49431,67.62218 526.94466,57.23634 524.31542,58.81393 C521.68606,60.39152 520.37132,65.38725 516.16442,63.54672 C511.95752,61.70619 513.14074,62.49498 510.11705,62.36352 C507.09325,62.23206 506.83032,61.57473 506.69892,58.81393 C506.5674,56.05313 507.75062,55.65874 504.85833,55.26434 C501.96605,54.86994 495.91869,54.86994 504.46389,49.47981 C513.00921,44.08969 512.61489,41.06597 512.61489,39.88276 C512.61489,38.69957 506.83032,33.70385 510.24845,30.68012 C513.66658,27.65638 515.7701,28.05079 520.23992,24.8956 C524.70975,21.74041 532.86075,17.7964 529.44262,17.66494 C526.02449,17.53348 520.89729,18.84813 518.66238,18.05934 C516.42734,17.27054 515.24425,16.21881 509.85401,20.5572 C504.46389,24.8956 509.19676,26.34173 503.41219,30.54865 C497.62775,34.75558 490.26552,34.62411 490.26552,34.62411 C490.26552,34.62411 492.76348,48.29662 489.47675,47.24488 C486.19014,46.19315 481.45727,40.40864 478.17066,40.40864 C474.88406,40.40864 471.99177,40.40864 471.86025,38.96251 C471.72885,37.51636 472.64902,35.93877 471.3344,35.67584 C470.01978,35.41291 467.1275,36.99051 470.15118,29.62839 C473.17499,22.26626 472.78054,21.21453 470.01978,18.32228 C467.2589,15.43002 458.97662,14.90414 458.97662,14.90414 C458.97662,14.90414 459.76539,3.86097 454.90112,2.67778 C450.03685,1.49457 449.90533,-0.87183 443.85796,3.3351 C437.81035,7.54202 440.57123,7.2791 436.75865,6.49029 C432.94607,5.7015 432.81467,3.46657 429.13362,4.9127 C425.45257,6.35883 426.10981,6.35883 426.10981,7.93642 C426.10981,9.51403 428.87057,14.24681 428.87057,17.13908 C428.87057,20.03134 429.13362,23.18653 430.44824,27.39346 C431.76286,31.60039 435.96988,38.83103 430.97409,44.48409 C425.97841,50.13714 415.19818,55.3958 411.3856,55.26434 C407.57302,55.13288 406.78425,45.53582 400.60531,46.45609 C394.42642,47.37636 392.98028,43.69529 389.95647,54.34407 C386.93279,64.99286 388.11601,58.1566 387.72156,60.52299 C387.32724,62.88939 385.61817,74.32697 377.33577,74.06403 C369.05337,73.80111 369.31629,70.90884 367.21278,65.78165 C365.10939,60.65446 358.53605,55.26434 352.88301,54.08114 C347.22997,52.89794 337.89587,49.61128 336.44973,52.50354 C335.00359,55.3958 335.92388,66.96485 337.1071,70.64591 C338.29019,74.32697 341.70832,76.82483 341.70832,82.08348 C341.70832,87.34214 344.33768,86.55335 343.94336,85.37014 C343.54891,84.18695 344.86353,83.52961 345.5209,85.63308 C346.17827,87.73654 349.07043,91.94346 349.20196,101.27759 C349.33336,110.61169 350.25365,115.73889 349.46488,116.13329 C348.67611,116.52769 343.94336,104.6957 343.02307,99.56852 C342.10277,94.44132 341.97137,92.07493 339.07909,90.2344 C336.18681,88.39387 338.29019,83.13521 333.0316,80.76882 C327.77288,78.40243 324.6178,77.61362 324.6178,77.61362 C324.6178,77.61362 325.40657,60.91739 320.27937,58.28807 C315.15218,55.65874 320.80522,57.23634 317.25557,54.21261 C313.70604,51.18887 311.86551,55.13288 311.86551,55.13288 C311.86551,55.13288 313.44311,51.18887 311.20817,49.87422 C308.97325,48.55955 308.71031,47.11342 306.21245,51.45181 C303.71459,55.7902 303.32019,55.7902 303.32019,55.7902 C303.32019,55.7902 304.24045,49.21688 302.13699,49.61128 C300.03353,50.00568 295.8266,53.94967 295.0378,55.65874 C294.24901,57.3678 294.77487,63.41525 289.12181,63.54672 C283.46876,63.67819 276.89544,63.28379 276.63251,69.72564 C276.430492,74.6749449 277.702948,74.5024183 276.812855,75.23 L313.8425,75.23 L313.8425,277.3675 C313.8425,338.6875 277.89875,366.59875 225.4575,366.59875 C214.621177,366.59875 204.825051,365.314667 195.993257,362.979545 C199.9688,366.070844 203.14279,368.61446 203.14279,368.61446 L229.08256,394.28015 C229.08256,394.28015 252.13684,391.30541 271.47269,400.22964 C290.80854,409.1539 293.78327,410.64126 293.78327,410.64126 C293.78327,410.64126 307.91332,415.10339 330.2239,406.17913 C352.53451,397.2549 354.02189,400.97333 365.92082,383.12486 C377.81976,365.2764 384.51298,360.81428 405.33625,360.0706 C406.759884,360.019756 408.089664,359.975864 409.33367,359.937023 C379.070884,350.043279 358.103143,330.045685 346,306.13 L394.20625,278.21875 C406.89625,298.9425 423.38875,314.16625 452.5675,314.16625 C461.128602,314.16625 468.607122,312.672497 474.715999,310.008575 C477.924682,307.394876 480.961412,305.434116 483.671215,304.462071 C489.50617,299.409104 492.74125,292.678074 492.74125,284.985 C492.74125,264.68625 476.6725,257.49625 449.60625,245.65875 L434.80875,239.31125 C392.09375,221.13 363.75875,198.29375 363.75875,150.08375 C363.75875,105.68 397.59,71.84625 450.45375,71.84625 C480.373054,71.84625 503.611394,80.1314985 521.65505,100.73699 Z M522.37273,101.566271 C523.580081,101.725737 526.109085,100.556868 528.3908,99.30558 C532.4663,97.07066 534.43829,96.54479 537.46197,96.15039 C540.48578,95.75599 545.61297,92.07493 547.05912,92.2064 C548.50513,92.33786 547.97929,93.38959 547.45344,96.67626 C546.92759,99.96292 545.08713,101.67198 552.97508,107.8509 C560.86304,114.02982 564.93854,114.02982 571.24883,113.37249 C577.55924,112.71516 574.40404,114.16129 576.37602,118.10528 C578.34801,122.04928 580.84597,122.83806 583.34381,121.52341 C585.84164,120.20874 586.23609,123.62687 588.20808,125.20446 C590.18007,126.78206 590.44299,127.17646 589.5227,128.88553 C588.6024,130.59458 588.99685,130.46312 588.471,136.37911 C587.94516,142.2951 586.89334,144.13563 583.34381,145.58176 C579.79415,147.02788 585.4472,148.47401 585.05287,149.78868 C584.65843,151.10335 577.29632,153.46974 577.29632,153.46974 C577.29632,153.46974 583.60673,153.20681 587.81363,153.33827 C592.02053,153.46974 592.02053,154.65294 593.33528,156.7564 C594.64989,158.85987 591.36329,162.278 590.31147,163.98705 C589.25977,165.69612 567.8307,168.71985 574.40404,167.53664 C580.97737,166.35345 592.80943,167.14224 592.80943,167.14224 C592.80943,167.14224 592.28346,176.60783 593.99252,177.5281 C595.70159,178.44835 598.19955,172.26944 598.19955,172.26944 C598.19955,172.26944 600.30294,182.12942 599.25124,182.91822 C598.19955,183.70701 598.85679,183.31261 598.59387,183.83849 C598.33095,184.36435 596.62188,192.51526 589.78562,193.17259 C582.94936,193.82993 583.34381,182.39236 572.82649,186.73074 C562.30918,191.06913 574.40404,191.595 577.95369,192.90967 C581.50322,194.22433 585.4472,197.77392 587.68223,199.35152 C589.91715,200.92911 592.15206,197.77392 592.15206,201.84938 C592.15206,205.92485 575.45585,203.16405 575.45585,203.16405 C575.45585,203.16405 589.02695,207.6149 589.02695,211.33333 C589.02695,215.05176 577.12789,213.56439 577.12789,213.56439 L580.84634,215.05176 C580.84634,215.05176 586.79587,214.30807 581.59003,217.28282 C576.3842,220.25756 576.3842,222.48862 577.12789,226.95074 C577.87158,231.41285 570.43479,232.15654 565.22896,232.90024 C560.02312,233.64391 562.99788,233.64391 557.79205,228.43811 C552.58621,223.23231 548.12419,221.74493 548.12419,221.74493 C548.12419,221.74493 552.58621,229.1818 555.56097,232.15654 C558.53574,235.1313 565.22896,239.5934 565.22896,239.5934 C565.22896,239.5934 554.81728,247.03027 553.3299,261.904 C552.727558,267.927871 552.247181,270.780164 551.345333,272.190005 C547.010014,230.95623 519.366616,210.854546 473.28625,191.105 L458.48625,184.7625 C433.115,173.76625 422.11875,166.57625 422.11875,148.81375 C422.11875,134.4375 433.115,123.4425 450.45375,123.4425 C467.36875,123.4425 478.36125,130.63125 488.51125,148.81375 L534.6075,119.2125 C530.82449,112.550356 526.753488,106.687977 522.37273,101.566271 Z M254.63875,87.9683481 C253.944574,87.6907067 253.362053,87.2525858 252.96856,86.42187 C251.78535,83.92401 248.1043,75.77309 246.1323,70.64591 C244.16031,65.51872 242.05684,56.31607 236.53525,57.3678 C231.01366,58.41953 223.65154,59.33979 222.99421,67.49072 C222.33688,75.64163 229.83047,89.97148 229.699,102.19784 C229.56753,114.42422 231.2766,122.3122 219.31315,124.2842 C207.34971,126.25619 212.08249,122.04928 211.03076,118.10528 C209.97905,114.16129 210.11051,110.08583 200.77639,120.47168 C191.44228,130.85752 191.17934,137.43084 191.83668,142.2951 C192.49401,147.15936 194.72894,156.09907 193.54574,156.23053 C192.36254,156.36201 187.76121,142.6895 186.97242,143.0839 C186.18362,143.47829 185.52629,141.63777 185.52629,145.58176 C185.52629,149.52575 185.52629,170.95477 184.3431,171.08625 C183.15989,171.21771 181.5823,170.29744 179.74177,159.64866 C177.90123,148.99989 177.2439,142.6895 175.40337,141.50629 C173.56285,140.3231 173.82578,139.5343 170.80205,141.11189 C167.77833,142.6895 167.38392,142.03216 171.06498,137.29938 C174.74604,132.56658 176.4551,124.2842 173.56285,123.23247 C170.67059,122.18074 167.12099,126.25619 167.12099,126.25619 C167.12099,126.25619 173.36565,120.07728 168.04125,118.76261 C162.71687,117.44795 156.01208,118.17101 154.76315,110.4145 C153.51422,102.65798 157.65541,108.57397 160.87634,109.95436 C164.09726,111.33477 168.17273,111.53196 170.07899,108.37677 C171.98525,105.22158 173.69431,103.64397 169.22446,101.47478 C164.7546,99.30558 168.56712,100.81745 170.67059,99.23985 C172.77405,97.66226 175.92924,94.63852 176.6523,89.6428 C177.37537,84.64708 178.95296,81.55762 174.87751,79.51989 C170.80205,77.48216 171.85378,79.25696 169.22446,77.67936 C166.59512,76.10177 168.50139,75.70736 165.08326,76.03603 C161.66514,76.36469 165.41193,74.7871 169.88179,73.80111 C174.35164,72.8151 176.19218,72.8151 173.29991,69.00257 C170.40765,65.19006 169.88179,69.46271 167.71259,68.80537 C165.54339,68.14805 162.12527,66.50471 164.3602,65.19006 C166.59512,63.87539 166.26646,62.03486 164.09726,60.72019 C161.92806,59.40553 160.15327,60.19432 159.89034,63.02086 C159.6274,65.84738 159.16728,67.35924 158.50994,67.09632 C157.85261,66.83338 160.15327,62.95512 157.45821,63.15232 C154.76315,63.34952 154.23728,62.29778 154.56595,60.91739 C154.89461,59.537 154.82888,55.92167 154.10582,55.52727 C153.38275,55.13288 154.10582,54.40981 154.56595,53.42381 C155.02608,52.4378 154.89461,49.01969 152.00236,47.24488 C149.1101,45.47009 148.18983,46.12742 145.82343,43.49809 C143.45704,40.86876 141.6165,43.16943 141.6165,43.16943 C141.6165,43.16943 144.90317,40.01424 143.91717,38.43663 C142.93117,36.85904 141.55078,36.00451 139.57878,35.80731 C137.60678,35.61011 137.08092,32.98078 136.42358,34.55838 C135.76625,36.13597 132.93973,38.30517 133.07119,36.20171 C133.20265,34.09825 133.85999,33.37518 131.4936,34.29545 C129.1272,35.2157 130.31039,31.86331 130.70479,28.83959 C131.09919,25.81586 132.0852,25.4872 129.98173,25.0928 C127.87827,24.6984 128.86426,24.30399 128.93,23.38373 C128.9958,22.46346 127.02374,21.21453 126.7608,20.1628 C126.49787,19.11107 126.10347,19.50547 124.85454,18.58521 C123.60561,17.66494 124.32868,15.62722 122.94827,14.90414 C121.56788,14.18109 119.46442,11.02589 118.74135,13.65521 C118.01828,16.28455 115.71762,11.28882 114.27149,10.36856 C112.82536,9.44829 110.59043,6.49029 109.9331,9.77696 C109.27577,13.06362 108.48697,12.07762 107.5667,13.32655 C106.64644,14.57548 105.13458,13.91815 102.57098,11.22309 C100.00738,8.52803 95.60326,4.7155 94.42007,7.21336 C93.23687,9.71122 93.23687,10.17136 89.16141,10.56576 C85.08595,10.96015 82.65382,10.36856 84.69155,13.98389 C86.72929,17.5992 88.10968,19.9656 86.40061,20.82014 C84.69155,21.67467 82.65382,20.82014 81.27343,20.49148 C79.89303,20.1628 77.52663,20.9516 81.20763,23.77813 C84.88868,26.60465 87.32081,27.98506 90.14734,27.59066 C92.97387,27.19626 99.28425,21.08307 99.61292,21.74041 C99.94158,22.39774 96.32627,25.61866 98.42973,26.21025 C100.53319,26.80186 101.25625,26.60465 102.30798,25.81586 C103.35971,25.02706 106.12051,23.38373 105.66037,26.40745 C105.20024,29.43119 105.06877,29.95705 108.61837,30.21998 C112.16796,30.48292 114.86302,28.37945 114.86302,29.49692 C114.86302,30.61438 111.18196,33.30945 112.10222,33.63811 C113.02249,33.96677 119.46434,32.98078 118.28115,33.90105 C117.09796,34.82131 114.07422,35.74157 113.54835,36.39891 C113.02249,37.05624 111.90502,39.22543 111.57636,38.1737 C111.24769,37.12197 101.84785,33.17798 98.62693,33.50665 C95.406,33.83531 93.69693,35.54438 92.11934,35.74157 C90.54174,35.93877 87.84668,38.10797 90.14734,41.06597 C92.448,44.02395 97.378,48.42808 102.30798,50.46582 C107.23797,52.50354 103.09678,54.01541 105.72611,53.48954 C108.35543,52.96368 107.5009,54.607 109.0785,55.52727 C110.65609,56.44753 112.75956,58.22233 114.66582,58.1566 C116.57208,58.0908 118.87275,57.49926 116.50635,59.27406 C114.13996,61.04885 114.07422,64.86138 115.45462,65.25578 C116.83502,65.65018 120.51607,76.69336 119.39862,80.24296 C118.28115,83.79255 113.81129,93.12666 115.06022,87.86801 C116.30915,82.60936 117.03222,74.91856 113.87702,75.31296 C110.72183,75.70736 108.48691,80.04576 108.81557,77.21922 C109.14423,74.3927 104.87158,60.85166 100.99331,62.29778 C97.11506,63.74391 97.11506,75.83883 96.72066,72.55218 C96.32627,69.26551 96.32627,65.51872 93.10533,69.59418 C89.8844,73.66963 94.74866,66.17605 92.97387,64.46698 C91.19907,62.75792 88.96415,63.74391 87.71522,64.79565 C86.46628,65.84738 88.76695,62.36352 88.37254,60.06286 C87.97814,57.7622 88.30674,53.02941 84.49428,55.0014 C80.68176,56.9734 83.11389,53.42381 80.1559,49.47981 C77.1979,45.53582 71.41337,39.42263 66.286189,40.27716 C61.158989,41.13169 56.229009,42.38062 57.806599,45.66729 C59.384199,48.95395 67.929519,48.95395 59.515659,48.03368 C51.101809,47.11342 52.613679,50.79448 55.177279,53.94967 C57.740859,57.10486 68.060979,64.53272 61.947789,62.10059 C55.834609,59.66846 46.829149,52.89794 45.251559,57.10486 C43.673949,61.31179 44.659959,67.22778 56.031809,77.48216 C67.403639,87.73654 58.463929,81.03175 54.585669,81.16321 C50.707409,81.29469 48.143819,74.7871 44.528489,75.05004 C40.913169,75.31296 38.349569,74.85284 41.307569,82.93802 C44.265559,91.02319 46.894889,93.52107 54.191269,95.1644 C61.487659,96.80772 72.00497,94.90146 72.2679,96.67626 C72.53084,98.45105 72.2679,99.17412 64.971519,100.09438 C57.675139,101.01465 56.886329,99.69998 57.214999,102.32932 C57.543659,104.95864 62.868059,107.19356 62.605119,108.57397 C62.342189,109.95436 62.670919,113.30675 60.567399,113.24103 C58.463929,113.17523 57.214999,110.94037 56.360469,112.25502 C55.505939,113.56969 54.980079,113.76689 53.533939,109.4285 C52.087819,105.0901 50.247279,102.85518 46.369029,100.88319 C42.490759,98.91119 29.672789,87.34214 27.569329,88.45961 C25.465869,89.57707 24.545599,91.74627 26.123189,96.61052 C27.700799,101.47478 29.541319,104.8929 33.156649,107.2593 C36.771979,109.6257 38.875439,111.66343 37.560779,111.92636 C36.246109,112.1893 27.043459,106.93064 26.386129,108.50823 C25.728799,110.08583 34.471319,119.81434 33.419589,120.60315 C32.367859,121.39194 30.001459,121.52341 23.691069,116.19902 C17.380679,110.87463 17.249219,108.63971 13.173759,109.88864 C9.098299,111.13757 11.201769,117.57942 8.769629,119.02555 C6.337509,120.47168 5.351499,119.74862 4.036849,121.72061 C2.722179,123.69259 0.092839,125.99326 0.881649,126.45339 C1.670449,126.91353 13.436689,126.12473 16.854819,127.24219 C20.272939,128.35965 29.212659,130.98899 29.869999,132.36938 C30.527319,133.74977 29.475589,137.89097 31.316129,138.81123 C33.156649,139.7315 40.847429,140.45456 42.425039,139.27137 C44.002629,138.08817 45.448759,134.73578 49.984359,134.01271 C54.519939,133.28965 58.266729,132.23792 59.252739,131.31765 C60.238729,130.39738 60.107259,129.67432 64.708599,131.25185 C69.309919,132.82945 71.34765,132.43505 71.80778,131.38332 C72.2679,130.33159 71.61058,118.76255 74.17417,121.39188 C76.73777,124.0212 80.74749,126.782 82.1279,126.12467 C83.50829,125.46733 84.88868,118.89402 86.40055,119.81428 C87.91241,120.73455 87.38654,123.36387 88.43827,122.838 C89.49001,122.31214 92.2508,119.41988 93.03961,121.06321 C93.82841,122.70654 92.90814,127.89946 95.27453,126.51906 C97.64093,125.13866 100.27025,126.12467 101.84786,127.89946 C103.42545,129.67426 109.4729,122.31214 109.8673,125.0072 C110.26169,127.70226 109.8015,132.50078 111.8393,131.77772 C113.87702,131.05465 119.59582,128.49106 118.60982,130.79173 C117.62382,133.09239 115.25743,133.02665 116.44062,135.32731 C117.62382,137.62797 123.14541,142.49223 124.46008,142.29503 C125.77474,142.09784 125.84047,141.96636 125.84047,141.96636 C125.84047,141.96636 129.98167,131.51478 133.26832,133.02665 C136.55498,134.53852 139.11858,134.66998 139.64445,138.54824 C140.17031,142.4265 136.88365,140.19157 140.82764,141.37477 C144.77163,142.55796 150.49043,141.0461 149.89883,143.21529 C149.30723,145.38449 148.0583,144.3985 143.3255,146.37049 C138.59272,148.34249 137.34379,147.88235 136.09486,149.65716 C134.84593,151.43194 130.04739,153.14101 127.68101,154.91581 C125.31461,156.6906 122.48807,158.92553 119.06994,159.38566 C115.65183,159.8458 114.27142,164.84152 111.97076,166.22192 C109.6701,167.60231 107.04078,171.15191 106.64638,172.40084 C106.25198,173.64977 104.47718,176.4763 106.71218,177.39656 C108.9471,178.31683 110.45897,176.4763 113.94282,178.57976 C117.42669,180.68323 125.84053,184.95588 132.01946,184.36428 C138.19838,183.77268 143.5885,177.59377 143.71997,176.60776 C143.85144,175.62177 146.3493,171.08618 148.78142,174.1099 C151.21356,177.13363 149.04436,179.82869 148.45276,182.32655 C147.86117,184.82442 145.36329,189.95161 145.7577,193.56693 C146.1521,197.18226 145.7577,196.262 144.9689,196.19626 C144.1801,196.13046 128.79853,196.72212 124.3944,194.88159 C119.99028,193.04107 117.95255,191.1348 114.60016,191.39774 C111.24777,191.66066 101.91366,192.64667 101.38779,194.42146 C100.86193,196.19626 100.33606,198.56266 98.62699,197.77385 C96.91793,196.98506 95.80047,192.97533 91.72501,194.22426 C87.64956,195.47319 84.75728,197.77385 82.7853,197.18226 C80.81329,196.59066 81.01049,195.21027 78.70983,196.32772 C76.40917,197.44519 76.60637,196.98506 76.34343,198.62839 C76.08051,200.27171 78.84129,204.01852 77.32944,203.03251 C75.81757,202.04652 75.68611,200.40319 74.37144,200.86332 C73.05678,201.32345 72.92531,202.37518 72.46518,203.62411 C72.00504,204.87305 72.00504,203.49265 72.20224,201.38918 C72.39944,199.28572 73.18824,194.4872 71.15051,195.67039 C69.112789,196.8536 66.877849,194.35574 65.497459,199.61439 C64.117059,204.87305 65.957589,205.92478 64.840119,205.66185 C63.722669,205.39891 62.539459,203.09825 60.633199,201.91505 C58.726929,200.73185 52.219349,200.27171 50.904689,201.65212 C49.590019,203.03251 45.580299,206.91078 41.964969,206.71358 C38.349639,206.51638 35.983249,206.31918 33.485389,203.36118 C30.987529,200.40319 25.334459,205.07025 24.808599,205.79331 C24.282729,206.51638 24.874399,207.37091 23.099539,207.63383 C21.324749,207.89677 18.826879,206.84504 20.996069,212.76103 C23.165269,218.67702 24.808599,226.1706 31.644849,227.61673 C38.481109,229.06286 39.795779,226.03914 42.556559,223.08115 C45.317359,220.12315 46.500569,219.26862 50.115879,220.58328 C53.731209,221.89794 54.848679,221.04341 56.360549,219.53155 C57.872399,218.01969 59.647199,218.08542 71.01905,220.51755 C82.3909,222.94967 89.95022,223.01541 91.85647,224.33008 C93.76273,225.64474 97.8382,227.3538 99.41579,226.3678 C100.99339,225.38181 104.93738,223.40981 106.9751,224.1986 C109.01284,224.98741 108.81564,226.9594 108.35551,228.07687 C107.89537,229.19434 108.7499,232.87539 110.45897,233.72992 C112.16804,234.58445 110.78763,237.08231 109.86737,238.46271 C108.9471,239.84311 104.34578,239.90885 109.3415,245.03603 C114.33722,250.16323 111.3135,253.77854 111.37923,254.83028 C111.44503,255.88201 110.45897,259.43161 112.95683,256.27642 C115.45469,253.12122 117.68962,260.28613 118.47842,263.3756 C119.26722,266.46505 120.58189,268.96291 123.73708,266.99092 C126.89226,265.01892 126.10347,261.53507 129.3244,260.28613 C132.54533,259.0372 134.25438,259.10294 137.27812,256.67081 C140.30185,254.23868 145.03463,252.20095 143.12837,256.80228 C141.22211,261.4036 136.62078,260.74627 135.04319,263.1784 C133.46559,265.61051 129.45586,269.7517 128.79853,273.56423 C128.14119,277.37676 127.68107,277.70542 128.79853,279.02009 C129.916,280.33475 133.46559,277.70542 130.70479,280.66341 C127.94399,283.62141 124.26294,286.44794 125.97201,287.89407 C127.68107,289.3402 129.85026,290.58913 133.53132,289.66886 C137.21238,288.74861 141.48504,283.81861 143.52277,282.70115 C145.56049,281.58368 146.61222,277.17956 155.61768,278.88862 C164.62313,280.59769 163.30847,280.07182 160.67913,281.32075 C158.04981,282.56968 158.77288,282.76688 154.82888,282.50395 C150.88489,282.24102 150.29329,283.75288 149.43876,284.54168 C148.58423,285.33047 148.25556,286.38221 145.03463,287.23674 C141.8137,288.09127 135.96345,296.70233 135.96345,297.35967 C135.96345,298.017 135.04319,298.8058 138.92144,300.77779 C142.79971,302.74979 144.7717,307.21965 142.14237,308.3371 C139.51304,309.45457 132.15092,309.91471 132.15092,311.03218 C132.15092,312.14963 133.39985,315.69923 131.75652,315.76496 C130.11319,315.83076 128.7328,314.97617 128.07547,317.93416 C127.41813,320.89216 129.5216,321.68095 125.51187,322.53549 C121.50214,323.39002 117.95255,326.41374 115.91483,326.08508 C113.8771,325.7564 110.72191,324.11308 106.84364,327.99134 C102.96539,331.86959 100.92765,331.21226 100.27032,330.8836 C99.61299,330.55494 97.8382,331.6724 95.73473,325.69068 C93.63127,319.70895 89.88448,316.0279 88.37261,317.80269 C86.86075,319.57749 86.59782,321.94389 86.26915,326.08508 C85.94049,330.22627 83.24542,331.4752 85.67755,332.6584 C88.10968,333.8416 88.43835,334.76187 86.92648,337.45692 C85.41462,340.15198 84.09995,340.94078 84.56009,342.71558 C85.02022,344.49037 85.48036,345.41064 84.82302,347.7113 C84.16569,350.01197 81.99649,351.78676 86.26915,352.44409 C90.54181,353.10142 97.70673,351.45809 99.61299,350.93222 C101.51925,350.40636 105.39751,346.79103 111.83936,348.82877 C118.28122,350.8665 120.64761,350.01197 122.48814,350.0777 C124.32868,350.1435 132.74253,350.0777 134.12292,349.28889 C135.50331,348.5001 138.59278,345.60784 140.43331,348.03996 C142.27384,350.4721 143.52277,353.56156 149.1101,352.83849 C154.69742,352.11543 153.84288,351.52383 158.04981,351.12943 C162.25673,350.73502 161.53366,349.61757 162.91407,348.43436 C163.295385,348.107519 163.686732,347.770646 164.189259,347.498561 C151.901631,338.015938 142.912702,325.75315 136.65,312.46875 L136.65,312.47375 L184.8625,283.29625 C194.16375,299.7875 202.625,313.74 222.92,313.74 C242.37375,313.74 254.63875,306.13025 254.63875,276.53 L254.63875,87.9683469 Z" id="Combined-Shape"></path>
        </g>
    </g>
</svg>