<svg viewBox="0 0 190 131"><path fill="#2e2e2c" d="M165.19 31.895c.004-.173.108-.44.344-.827 1.04-1.707-.958-1.79.333-3.206 1.29-1.415 2.706-3.038 2.414-4.745-.291-1.706-1.415-4.995-2.248-4.495-.832.5-1.249 2.081-2.58 1.498-1.333-.583-.958-.333-1.916-.374-.957-.042-1.04-.25-1.082-1.124-.042-.874.333-1-.583-1.124-.916-.125-2.831-.125-.125-1.832 2.706-1.706 2.581-2.664 2.581-3.038 0-.375-1.832-1.957-.75-2.914 1.083-.957 1.75-.833 3.165-1.832 1.415-.999 3.996-2.247 2.914-2.289-1.083-.042-2.706.375-3.414.125-.708-.25-1.082-.583-2.79.79-1.706 1.374-.207 1.832-2.04 3.164-1.83 1.332-4.162 1.29-4.162 1.29s.79 4.33-.25 3.997c-1.04-.333-2.54-2.165-3.58-2.165-1.041 0-1.957 0-1.999-.458-.041-.458.25-.957-.166-1.04-.416-.084-1.332.416-.375-1.915.958-2.331.833-2.664-.041-3.58-.875-.916-3.497-1.082-3.497-1.082s.25-3.497-1.291-3.871c-1.54-.375-1.582-1.124-3.497.208-1.915 1.332-1.04 1.249-2.248.999-1.207-.25-1.249-.957-2.415-.5-1.165.458-.957.458-.957.958 0 .5.874 1.998.874 2.914 0 .915.083 1.914.5 3.246.416 1.332 1.748 3.622.166 5.412s-4.996 3.454-6.203 3.413c-1.207-.042-1.457-3.08-3.414-2.789-1.956.291-2.414-.874-3.372 2.497-.957 3.372-.583 1.208-.708 1.957-.124.75-.666 4.37-3.288 4.287-2.623-.083-2.54-.999-3.206-2.622-.666-1.624-2.748-3.33-4.538-3.705-1.79-.374-4.746-1.415-5.204-.5-.458.916-.166 4.58.209 5.745.374 1.165 1.457 1.956 1.457 3.621s.832 1.416.707 1.041.292-.583.5.083c.208.666 1.124 1.998 1.166 4.954.041 2.955.333 4.578.083 4.703s-1.749-3.621-2.04-5.245c-.291-1.623-.333-2.372-1.249-2.955-.916-.583-.25-2.248-1.915-2.997-1.665-.75-2.664-.999-2.664-.999s.25-5.286-1.374-6.119c-1.624-.832.166-.333-.958-1.29-1.124-.958-1.707.291-1.707.291s.5-1.249-.208-1.665c-.707-.416-.79-.874-1.582.5-.79 1.373-.916 1.373-.916 1.373s.292-2.08-.374-1.956c-.666.125-1.999 1.374-2.248 1.915-.25.54-.084 2.456-1.874 2.497-1.79.042-3.871-.083-3.955 1.957-.064 1.567.34 1.512.057 1.742h11.726V87.82c0 19.416-11.382 28.253-27.988 28.253-3.432 0-6.534-.407-9.33-1.146 1.258.979 2.264 1.784 2.264 1.784l8.214 8.126s7.3-.942 13.423 1.884c6.123 2.826 7.065 3.297 7.065 3.297s4.475 1.412 11.54-1.413c7.065-2.826 7.536-1.649 11.304-7.3 3.768-5.65 5.887-7.064 12.481-7.3.451-.015.872-.03 1.266-.041-9.583-3.133-16.223-9.465-20.055-17.037l15.265-8.837c4.018 6.561 9.241 11.382 18.481 11.382 2.711 0 5.08-.473 7.014-1.317 1.016-.827 1.977-1.448 2.836-1.756 1.847-1.6 2.872-3.731 2.872-6.167 0-6.427-5.089-8.703-13.66-12.451l-4.686-2.01c-13.526-5.757-22.499-12.987-22.499-28.251 0-14.06 10.713-24.772 27.454-24.772 9.474 0 16.833 2.623 22.547 9.147zm.228.263c.382.05 1.183-.32 1.906-.716 1.29-.707 1.915-.874 2.872-.999.958-.125 2.581-1.29 3.04-1.249.457.042.29.375.124 1.416-.166 1.04-.75 1.581 1.749 3.538 2.498 1.956 3.788 1.956 5.786 1.748 1.999-.208 1 .25 1.624 1.499.625 1.248 1.416 1.498 2.207 1.082.79-.416.915.666 1.54 1.165.624.5.708.625.416 1.166-.291.541-.166.5-.333 2.372-.166 1.874-.5 2.456-1.623 2.914-1.125.458.666.916.54 1.332-.124.416-2.455 1.166-2.455 1.166s1.998-.084 3.33-.042 1.332.416 1.749 1.082c.416.666-.625 1.749-.958 2.29-.333.54-7.119 1.498-5.037 1.124 2.081-.375 5.828-.125 5.828-.125s-.167 2.997.375 3.288c.54.291 1.332-1.665 1.332-1.665s.666 3.122.333 3.372-.125.125-.208.291c-.084.167-.625 2.747-2.79 2.955-2.164.209-2.04-3.413-5.37-2.04-3.33 1.374.5 1.541 1.624 1.957 1.124.416 2.373 1.54 3.08 2.04.708.5 1.416-.5 1.416.79 0 1.291-5.287.417-5.287.417s4.297 1.41 4.297 2.587c0 1.177-3.768.706-3.768.706l1.178.47s1.884-.235.235.707c-1.648.942-1.648 1.649-1.413 3.061.236 1.413-2.12 1.649-3.768 1.884-1.648.236-.706.236-2.355-1.413-1.648-1.648-3.061-2.119-3.061-2.119s1.413 2.355 2.355 3.297c.942.941 3.061 2.354 3.061 2.354s-3.297 2.355-3.768 7.064c-.19 1.908-.343 2.81-.628 3.257-1.373-13.055-10.127-19.42-24.719-25.673l-4.687-2.008c-8.034-3.482-11.516-5.758-11.516-11.382 0-4.552 3.482-8.034 8.973-8.034 5.356 0 8.837 2.277 12.051 8.034l14.597-9.373c-1.198-2.11-2.487-3.965-3.874-5.587zm-84.782-4.305a.93.93 0 0 1-.53-.49c-.374-.79-1.54-3.372-2.164-4.995-.625-1.623-1.29-4.537-3.04-4.204-1.748.333-4.079.624-4.287 3.205-.208 2.58 2.165 7.118 2.123 10.989-.042 3.871.5 6.369-3.289 6.993-3.788.624-2.29-.708-2.623-1.956-.333-1.25-.291-2.54-3.247.749-2.956 3.288-3.039 5.37-2.83 6.91.207 1.54.915 4.37.54 4.412-.374.041-1.831-4.288-2.081-4.163s-.458-.458-.458.791 0 8.034-.375 8.075c-.374.042-.874-.25-1.457-3.62-.583-3.373-.79-5.37-1.374-5.745-.582-.375-.5-.625-1.457-.125-.957.5-1.082.291.084-1.207 1.165-1.499 1.706-4.121.79-4.454-.915-.333-2.04.957-2.04.957s1.978-1.956.292-2.372c-1.686-.417-3.81-.188-4.205-2.643-.395-2.456.916-.583 1.936-.146 1.02.437 2.31.5 2.914-.5.604-.999 1.145-1.498-.27-2.185-1.416-.687-.208-.208.458-.708s1.665-1.456 1.894-3.038c.229-1.582.728-2.56-.562-3.205-1.29-.646-.958-.084-1.79-.583-.833-.5-.23-.624-1.312-.52-1.082.104.104-.396 1.52-.708 1.415-.312 1.998-.312 1.082-1.52-.916-1.206-1.082.146-1.769-.062-.687-.208-1.77-.728-1.062-1.144.708-.417.604-1-.083-1.416-.687-.416-1.249-.166-1.332.729-.083.895-.229 1.373-.437 1.29-.208-.083.52-1.311-.333-1.249-.854.063-1.02-.27-.916-.707.104-.437.083-1.582-.146-1.707-.229-.125 0-.354.146-.666.146-.312.104-1.394-.812-1.956s-1.207-.354-1.957-1.187c-.749-.832-1.332-.104-1.332-.104s1.041-.999.729-1.498c-.312-.5-.75-.77-1.374-.833-.625-.062-.791-.895-1-.395-.207.5-1.102 1.186-1.06.52.04-.666.249-.895-.5-.603-.75.291-.375-.77-.25-1.728.125-.957.437-1.061-.23-1.186-.665-.125-.353-.25-.332-.541.02-.292-.604-.687-.687-1.02-.083-.333-.208-.208-.604-.5-.395-.29-.166-.936-.603-1.165-.438-.229-1.104-1.228-1.333-.395-.229.832-.957-.75-1.415-1.041-.458-.291-1.166-1.228-1.374-.187-.208 1.04-.458.728-.75 1.123-.29.396-.77.188-1.581-.666-.812-.853-2.207-2.06-2.581-1.27-.375.792-.375.937-1.666 1.062-1.29.125-2.06-.062-1.415 1.083.645 1.144 1.082 1.894.541 2.164-.541.27-1.186 0-1.623-.104-.438-.104-1.187.146-.021 1.04 1.165.896 1.936 1.333 2.83 1.208.896-.125 2.894-2.06 2.998-1.853.104.209-1.04 1.228-.375 1.416.667.187.895.125 1.229-.125.333-.25 1.207-.77 1.061.187-.146.958-.187 1.124.937 1.207 1.124.084 1.977-.582 1.977-.229 0 .354-1.165 1.207-.874 1.312.291.104 2.331-.209 1.957.083-.375.291-1.332.583-1.499.79-.167.209-.52.896-.624.563-.105-.333-3.081-1.582-4.101-1.478-1.02.104-1.561.645-2.06.708-.5.062-1.354.749-.625 1.685.728.937 2.29 2.331 3.85 2.977 1.562.645.25 1.123 1.083.957.833-.167.562.354 1.062.645.5.291 1.165.853 1.769.833.603-.021 1.332-.209.583.353-.75.562-.77 1.77-.333 1.894.437.125 1.602 3.622 1.249 4.746-.354 1.123-1.77 4.079-1.374 2.414.395-1.665.624-4.1-.375-3.975-1 .125-1.707 1.498-1.603.603.104-.895-1.249-5.182-2.477-4.724-1.228.458-1.228 4.287-1.353 3.247-.125-1.041-.125-2.227-1.145-.937-1.02 1.29.52-1.082-.041-1.623-.562-.542-1.27-.23-1.666.104-.395.333.334-.77.209-1.499-.125-.728-.021-2.227-1.228-1.602-1.208.624-.438-.5-1.374-1.749-.937-1.248-2.769-3.184-4.392-2.913-1.624.27-3.185.666-2.686 1.706.5 1.04 3.206 1.04.542.75-2.665-.292-2.186.874-1.374 1.873.812.999 4.08 3.35 2.144 2.58s-4.788-2.913-5.287-1.581c-.5 1.332-.188 3.205 3.413 6.451 3.601 3.247.77 1.124-.458 1.166-1.228.042-2.04-2.019-3.184-1.936-1.145.084-1.957-.062-1.02 2.498.936 2.56 1.769 3.35 4.08 3.871 2.31.52 5.64-.083 5.724.479.083.562 0 .79-2.31 1.082-2.311.291-2.561-.125-2.457.708.104.832 1.79 1.54 1.707 1.977-.083.437.02 1.498-.645 1.477-.666-.02-1.062-.728-1.333-.312-.27.417-.437.479-.895-.895-.458-1.373-1.04-2.08-2.268-2.705-1.229-.625-5.288-4.288-5.954-3.934-.666.354-.957 1.04-.458 2.58.5 1.541 1.083 2.623 2.228 3.373 1.144.749 1.81 1.394 1.394 1.477-.416.083-3.33-1.582-3.538-1.082-.209.5 2.56 3.58 2.227 3.83-.333.25-1.083.29-3.08-1.395-2-1.686-2.04-2.393-3.331-1.998-1.29.395-.625 2.435-1.395 2.893-.77.458-1.082.229-1.499.853-.416.625-1.249 1.353-.999 1.499.25.145 3.976-.104 5.058.25 1.083.353 3.914 1.186 4.122 1.623.208.437-.125 1.748.458 2.04.583.29 3.018.52 3.518.145.5-.374.957-1.436 2.393-1.665 1.437-.229 2.623-.562 2.935-.853.313-.291.271-.52 1.728-.02 1.457.499 2.102.374 2.248.04.146-.332-.062-3.995.75-3.163.811.833 2.081 1.707 2.518 1.499.437-.208.874-2.29 1.353-1.998.479.291.312 1.124.645.957.334-.166 1.208-1.082 1.458-.562s-.042 2.165.707 1.728c.75-.437 1.582-.125 2.082.437.5.562 2.414-1.77 2.54-.916.124.853-.022 2.373.624 2.144.645-.23 2.456-1.041 2.144-.313-.312.729-1.062.708-.687 1.436.375.729 2.123 2.269 2.54 2.207.416-.063.436-.105.436-.105s1.312-3.309 2.353-2.83c1.04.479 1.852.52 2.019 1.748.166 1.228-.875.52.374.895 1.25.375 3.06-.104 2.873.583-.187.687-.583.375-2.082.999-1.498.624-1.894.479-2.29 1.04-.395.562-1.914 1.104-2.664 1.666-.749.561-1.644 1.27-2.727 1.415-1.082.146-1.52 1.727-2.248 2.164-.728.437-1.56 1.561-1.686 1.957-.125.395-.687 1.29.021 1.581.708.292 1.187-.29 2.29.375 1.103.666 3.768 2.019 5.724 1.832 1.957-.188 3.664-2.144 3.705-2.456.042-.312.833-1.749 1.603-.791.77.957.083 1.81-.104 2.601-.187.791-.978 2.415-.853 3.56.124 1.144 0 .853-.25.832-.25-.021-5.12.166-6.515-.416-1.395-.583-2.04-1.187-3.102-1.103-1.062.083-4.017.395-4.184.957-.166.562-.333 1.311-.874 1.061-.541-.25-.895-1.519-2.186-1.124-1.29.396-2.206 1.124-2.83.937-.625-.187-.563-.624-1.291-.27-.729.353-.666.208-.75.728-.083.52.791 1.707.313 1.394-.48-.312-.52-.832-.937-.686-.416.145-.458.478-.604.874-.145.395-.145-.042-.083-.708.062-.666.312-2.185-.333-1.81-.645.374-1.353-.417-1.79 1.248-.437 1.665.146 1.998-.208 1.915-.354-.083-.729-.812-1.332-1.186-.604-.375-2.665-.52-3.081-.084-.416.437-1.686 1.665-2.831 1.603-1.145-.063-1.894-.125-2.685-1.062-.791-.936-2.581.542-2.748.77-.166.23.02.5-.541.583-.562.083-1.353-.25-.666 1.624.687 1.873 1.207 4.245 3.372 4.703 2.165.458 2.581-.5 3.455-1.436.874-.936 1.25-1.207 2.394-.79 1.145.415 1.499.145 1.978-.334.478-.478 1.04-.458 4.641.312s5.995.791 6.599 1.208c.604.416 1.894.957 2.394.645.5-.312 1.748-.937 2.393-.687.646.25.583.874.438 1.228-.146.354.124 1.52.666 1.79.54.27.104 1.061-.188 1.498-.291.437-1.748.458-.166 2.081 1.582 1.624.624 2.769.645 3.102.02.333-.291 1.456.5.457.79-.999 1.498 1.27 1.748 2.248.25.978.666 1.77 1.665 1.145 1-.625.75-1.728 1.77-2.123 1.02-.395 1.56-.375 2.518-1.145.958-.77 2.457-1.415 1.853.042-.604 1.457-2.06 1.249-2.56 2.019s-1.77 2.081-1.978 3.288c-.208 1.207-.354 1.311 0 1.728.354.416 1.478-.417.604.52-.874.936-2.04 1.831-1.499 2.29.541.457 1.228.853 2.394.561 1.166-.291 2.519-1.852 3.164-2.206.645-.354.978-1.748 3.83-1.207 2.852.541 2.435.375 1.603.77-.833.395-.604.458-1.853.375-1.249-.084-1.436.395-1.707.645-.27.25-.374.583-1.394.853s-2.873 2.997-2.873 3.205c0 .208-.291.458.937 1.082 1.228.625 1.852 2.04 1.02 2.394-.833.354-3.164.5-3.164.853 0 .354.395 1.478-.125 1.499-.52.02-.958-.25-1.166.687-.208.936.458 1.186-.812 1.456-1.27.271-2.393 1.228-3.039 1.124-.645-.104-1.644-.624-2.872.604s-1.874 1.02-2.082.916c-.208-.104-.77.25-1.436-1.645-.666-1.894-1.853-3.059-2.331-2.497-.48.562-.562 1.311-.666 2.622-.105 1.311-.958 1.707-.188 2.082.77.374.874.666.396 1.519-.479.853-.895 1.103-.75 1.665.146.562.292.853.084 1.582-.209.728-.895 1.29.458 1.498 1.353.208 3.621-.312 4.225-.479.604-.166 1.832-1.31 3.872-.666 2.04.646 2.79.375 3.372.396.583.02 3.247 0 3.684-.25.437-.25 1.416-1.165 1.999-.395.582.77.978 1.748 2.747 1.519 1.77-.229 1.499-.416 2.831-.541 1.332-.125 1.103-.479 1.54-.853.121-.104.245-.21.404-.297-3.89-3.002-6.737-6.885-8.72-11.09l15.267-9.238c2.945 5.222 5.625 9.64 12.051 9.64 6.16 0 10.045-2.41 10.045-11.782V27.853z"/></svg>
